<svg xmlns="http://www.w3.org/2000/svg" xmlns:xlink="http://www.w3.org/1999/xlink" width="250" zoomAndPan="magnify" viewBox="0 0 187.5 74.999997" height="100" preserveAspectRatio="xMidYMid meet" version="1.0"><defs><g/><clipPath id="bc33c88fa2"><path d="M 0 0.101562 L 187 0.101562 L 187 74.898438 L 0 74.898438 Z M 0 0.101562 " clip-rule="nonzero"/></clipPath><clipPath id="da513baf08"><path d="M 55.429688 15.765625 L 131.726562 15.765625 L 131.726562 59 L 55.429688 59 Z M 55.429688 15.765625 " clip-rule="nonzero"/></clipPath></defs><g clip-path="url(#bc33c88fa2)"><path fill="#ffffff" d="M 0 0.101562 L 187 0.101562 L 187 74.898438 L 0 74.898438 Z M 0 0.101562 " fill-opacity="1" fill-rule="nonzero"/><path fill="#ffffff" d="M 0 0.101562 L 187 0.101562 L 187 74.898438 L 0 74.898438 Z M 0 0.101562 " fill-opacity="1" fill-rule="nonzero"/></g><g fill="#00a9e8" fill-opacity="1"><g transform="translate(6.138843, 57.356858)"><g><path d="M 28.421875 -43.671875 L 28.421875 -34.9375 L 13.125 -34.9375 L 13.125 -26.25 L 27.265625 -26.25 L 27.265625 -17.515625 L 13.125 -17.515625 L 13.125 0 L 3.171875 0 L 3.171875 -43.671875 Z M 28.421875 -43.671875 "/></g></g></g><g fill="#00a9e8" fill-opacity="1"><g transform="translate(33.50742, 57.356858)"><g><path d="M 0.421875 -34.9375 L 0.421875 -43.671875 L 31.125 -43.671875 L 31.125 -34.9375 L 20.75 -34.9375 L 20.75 0 L 10.796875 0 L 10.796875 -34.9375 Z M 0.421875 -34.9375 "/></g></g></g><g fill="#00a9e8" fill-opacity="1"><g transform="translate(62.416415, 57.356858)"><g/></g></g><g fill="#00a9e8" fill-opacity="1"><g transform="translate(74.221133, 57.356858)"><g/></g></g><g fill="#00a9e8" fill-opacity="1"><g transform="translate(86.025851, 57.356858)"><g/></g></g><g fill="#00a9e8" fill-opacity="1"><g transform="translate(97.836611, 57.356858)"><g><path d="M 39.28125 0 L 37.21875 -25.890625 L 36.953125 -25.890625 L 28 -0.265625 L 22.078125 -0.265625 L 13.125 -25.890625 L 12.859375 -25.890625 L 10.796875 0 L 0.84375 0 L 4.765625 -43.671875 L 15.359375 -43.671875 L 25.046875 -18.46875 L 34.734375 -43.671875 L 45.3125 -43.671875 L 49.234375 0 Z M 39.28125 0 "/></g></g></g><g fill="#00a9e8" fill-opacity="1"><g transform="translate(145.268818, 57.356858)"><g><path d="M 19.265625 -44.46875 C 21.628906 -44.46875 23.941406 -44.125 26.203125 -43.4375 C 28.460938 -42.75 30.140625 -42.066406 31.234375 -41.390625 L 32.828125 -40.34375 L 28.796875 -32.390625 C 28.484375 -32.609375 28.039062 -32.882812 27.46875 -33.21875 C 26.90625 -33.550781 25.847656 -34 24.296875 -34.5625 C 22.742188 -35.132812 21.296875 -35.421875 19.953125 -35.421875 C 18.296875 -35.421875 17.015625 -35.066406 16.109375 -34.359375 C 15.210938 -33.648438 14.765625 -32.695312 14.765625 -31.5 C 14.765625 -30.894531 14.976562 -30.335938 15.40625 -29.828125 C 15.832031 -29.316406 16.554688 -28.769531 17.578125 -28.1875 C 18.597656 -27.601562 19.492188 -27.132812 20.265625 -26.78125 C 21.046875 -26.425781 22.25 -25.898438 23.875 -25.203125 C 26.695312 -23.992188 29.101562 -22.359375 31.09375 -20.296875 C 33.09375 -18.234375 34.09375 -15.894531 34.09375 -13.28125 C 34.09375 -10.78125 33.640625 -8.59375 32.734375 -6.71875 C 31.835938 -4.851562 30.601562 -3.390625 29.03125 -2.328125 C 27.46875 -1.265625 25.734375 -0.476562 23.828125 0.03125 C 21.921875 0.539062 19.851562 0.796875 17.625 0.796875 C 15.71875 0.796875 13.847656 0.597656 12.015625 0.203125 C 10.179688 -0.179688 8.644531 -0.664062 7.40625 -1.25 C 6.175781 -1.832031 5.066406 -2.40625 4.078125 -2.96875 C 3.085938 -3.53125 2.363281 -4.003906 1.90625 -4.390625 L 1.21875 -4.96875 L 6.1875 -13.34375 C 6.613281 -12.988281 7.195312 -12.535156 7.9375 -11.984375 C 8.675781 -11.441406 9.988281 -10.710938 11.875 -9.796875 C 13.769531 -8.878906 15.441406 -8.421875 16.890625 -8.421875 C 21.085938 -8.421875 23.1875 -9.847656 23.1875 -12.703125 C 23.1875 -13.304688 23.035156 -13.863281 22.734375 -14.375 C 22.429688 -14.882812 21.898438 -15.394531 21.140625 -15.90625 C 20.390625 -16.414062 19.722656 -16.820312 19.140625 -17.125 C 18.554688 -17.425781 17.601562 -17.882812 16.28125 -18.5 C 14.957031 -19.113281 13.976562 -19.582031 13.34375 -19.90625 C 10.695312 -21.207031 8.648438 -22.835938 7.203125 -24.796875 C 5.753906 -26.753906 5.03125 -28.863281 5.03125 -31.125 C 5.03125 -35.039062 6.472656 -38.242188 9.359375 -40.734375 C 12.253906 -43.222656 15.554688 -44.46875 19.265625 -44.46875 Z M 19.265625 -44.46875 "/></g></g></g><g clip-path="url(#da513baf08)"><path fill="#0088c9" d="M 96.707031 15.9375 C 96.523438 15.972656 96.570312 16.304688 96.492188 16.476562 C 95.789062 16.777344 94.925781 16.96875 94.347656 17.578125 C 93.125 18.074219 92.179688 19.0625 91.0625 19.738281 C 90.003906 20.355469 89.015625 21.117188 88.035156 21.84375 C 87.84375 22.257812 87.511719 22.53125 87.132812 22.746094 C 86.425781 23.398438 85.460938 23.445312 84.652344 23.894531 C 84.667969 23.347656 84.847656 22.355469 84.738281 21.644531 C 84.875 20.179688 83.925781 18.183594 82.191406 18.472656 C 81 18.5625 79.71875 18.257812 78.574219 18.617188 C 78.074219 18.789062 78.054688 19.445312 77.644531 19.652344 C 77.289062 20.265625 77.054688 21.003906 77.050781 21.726562 C 76.925781 22.230469 77.550781 22.53125 77.320312 22.980469 C 77.15625 23.453125 77.644531 24.023438 77.257812 24.375 C 77.085938 25.054688 76.300781 25.132812 75.90625 25.648438 C 75.378906 25.609375 74.949219 25.90625 74.460938 26 C 73.851562 26.449219 73.335938 27.085938 73.046875 27.796875 C 72.625 28.171875 72.207031 28.601562 72.0625 29.160156 C 71.972656 30.128906 71.035156 30.628906 70.640625 31.480469 C 70.445312 32.191406 70.222656 32.90625 69.894531 33.554688 C 69.636719 33.980469 69.277344 34.421875 69.039062 34.871094 C 68.617188 35.636719 67.972656 36.371094 67.8125 37.253906 C 67.539062 37.667969 67.601562 38.253906 67.25 38.597656 C 66.847656 39.378906 66.800781 40.398438 66.15625 41.027344 C 65.546875 41.34375 65.472656 41.992188 65.480469 42.589844 C 65.402344 43.253906 65.355469 44.429688 66.265625 44.5 C 66.605469 44.363281 66.910156 44.214844 67.234375 44.039062 C 67.523438 43.238281 68.242188 42.636719 68.566406 41.839844 C 68.941406 41.363281 69.160156 40.796875 69.65625 40.394531 C 70.167969 39.925781 70.503906 39.316406 70.824219 38.726562 C 71.183594 37.90625 71.832031 37.234375 72.183594 36.414062 C 72.121094 35.78125 72.65625 35.363281 72.824219 34.820312 C 73.332031 34.445312 73.679688 33.921875 74.085938 33.4375 C 74.253906 34.039062 74.621094 34.683594 74.164062 35.28125 C 74.070312 35.898438 73.84375 36.480469 73.746094 37.097656 C 73.648438 37.628906 73.539062 38.117188 73.308594 38.589844 C 72.9375 38.976562 72.699219 39.46875 72.472656 39.957031 C 72.304688 40.207031 72.132812 40.488281 72.03125 40.792969 C 71.921875 41.425781 71.765625 42.082031 71.113281 42.421875 C 70.15625 43.570312 69.125 44.707031 68.085938 45.792969 C 67.550781 45.824219 67.042969 46.175781 66.800781 46.679688 C 66.292969 46.75 65.890625 47.230469 65.382812 47.3125 C 64.894531 47.828125 64.308594 48.21875 63.71875 48.636719 C 63.117188 49 62.664062 49.558594 62.21875 50.085938 C 61.726562 50.664062 61.269531 51.277344 60.769531 51.84375 C 60.019531 52.292969 59.851562 53.253906 59.089844 53.695312 C 58.519531 53.535156 58.15625 53.984375 57.902344 54.417969 C 57.425781 54.644531 57.375 55.195312 56.910156 55.40625 C 56.308594 55.792969 55.472656 56.277344 55.429688 57.136719 C 55.570312 57.855469 56.65625 58.011719 57.304688 57.816406 C 57.90625 58.128906 58.722656 58.195312 59.335938 57.878906 C 59.480469 57.519531 59.703125 57.273438 59.828125 56.925781 C 60.734375 55.832031 61.785156 54.804688 62.871094 53.855469 C 63.710938 53.371094 64.433594 52.6875 65.269531 52.238281 C 65.867188 51.472656 66.644531 50.65625 67.738281 50.929688 C 68.136719 50.648438 68.660156 50.441406 69.070312 50.082031 C 69.839844 49.738281 70.441406 49.164062 71.195312 48.769531 C 72.585938 47.96875 73.898438 47.183594 75.253906 46.351562 C 76.464844 46.035156 77.515625 45.046875 78.863281 45.269531 C 80.613281 45.324219 82.3125 45.78125 84.042969 46.019531 C 85.050781 46.269531 86.09375 46.421875 87.171875 46.261719 C 87.550781 46.445312 88.089844 46.414062 88.34375 46.785156 C 88.507812 48.101562 88.367188 49.523438 89.050781 50.695312 C 89.449219 52.140625 89.738281 53.628906 89.949219 55.113281 C 89.53125 55.976562 89.445312 56.984375 89.425781 57.953125 C 89.316406 58.769531 90.28125 58.542969 90.828125 58.574219 C 91.976562 58.492188 93.230469 58.859375 94.328125 58.5 C 95.417969 58.253906 96.734375 59.214844 97.683594 58.328125 C 98.246094 57.488281 97.160156 56.546875 96.308594 56.59375 C 95.570312 55.945312 94.675781 55.445312 93.933594 54.785156 C 93.757812 54.46875 93.507812 53.867188 92.992188 54.027344 C 92.660156 52.671875 92.714844 51.25 92.640625 49.847656 C 92.664062 48.226562 92.136719 46.707031 92.113281 45.097656 C 92.21875 44.085938 91.761719 43.042969 90.820312 42.578125 C 90.0625 42.414062 89.519531 41.910156 88.765625 41.714844 C 87.128906 40.878906 85.253906 40.558594 83.46875 40.109375 C 82.84375 40.09375 83.527344 39.445312 83.6875 39.199219 C 84.265625 38.597656 84.089844 37.789062 83.992188 37.054688 C 83.71875 35.96875 83.667969 34.847656 83.730469 33.71875 C 83.835938 32.359375 84.089844 30.988281 84.382812 29.660156 C 85.488281 28.964844 86.335938 27.828125 87.535156 27.296875 C 88.515625 26.519531 89.667969 26.046875 90.519531 25.125 C 90.9375 24.902344 90.785156 24.363281 91.117188 24.070312 C 92.015625 23.785156 92.308594 22.757812 93.011719 22.203125 C 93.574219 21.90625 93.820312 21.300781 94.320312 20.886719 C 94.683594 19.957031 95.796875 20.066406 96.621094 20.003906 C 97.066406 20.199219 97.578125 20.09375 97.925781 19.726562 C 98.160156 19.253906 98.5 18.75 98.578125 18.21875 C 118.242188 18.011719 127.261719 18.507812 131.507812 18.753906 C 131.433594 18.199219 131.527344 18.949219 131.558594 18.507812 C 125.4375 18.113281 99.136719 17.5625 98.535156 17.546875 C 98.625 16.640625 97.8125 15.773438 96.875 15.96875 C 96.800781 15.941406 96.75 15.929688 96.707031 15.9375 Z M 96.707031 15.9375 " fill-opacity="1" fill-rule="nonzero"/></g></svg>