<svg xmlns="http://www.w3.org/2000/svg" xmlns:xlink="http://www.w3.org/1999/xlink" width="1000" zoomAndPan="magnify" viewBox="0 0 750 187.499995" height="250" preserveAspectRatio="xMidYMid meet" version="1.0"><defs><g/><clipPath id="16c3073d3c"><path d="M 365.667969 4 L 661.371094 4 L 661.371094 171 L 365.667969 171 Z M 365.667969 4 " clip-rule="nonzero"/></clipPath></defs><g fill="#00a9e8" fill-opacity="1"><g transform="translate(1.287141, 136.030091)"><g><path d="M 3.296875 -59.1875 C 3.296875 -76.28125 9.125 -90.75 20.78125 -102.59375 C 32.4375 -114.445312 46.476562 -120.375 62.90625 -120.375 C 79.4375 -120.375 93.476562 -114.472656 105.03125 -102.671875 C 116.59375 -90.867188 122.375 -76.375 122.375 -59.1875 C 122.375 -41.894531 116.6875 -27.347656 105.3125 -15.546875 C 93.945312 -3.742188 79.8125 2.15625 62.90625 2.15625 C 45.613281 2.15625 31.351562 -3.691406 20.125 -15.390625 C 8.90625 -27.097656 3.296875 -41.695312 3.296875 -59.1875 Z M 32.390625 -59.1875 C 32.390625 -52.976562 33.34375 -47.316406 35.25 -42.203125 C 37.15625 -37.085938 40.5 -32.765625 45.28125 -29.234375 C 50.0625 -25.703125 55.9375 -23.9375 62.90625 -23.9375 C 72.9375 -23.9375 80.503906 -27.375 85.609375 -34.25 C 90.722656 -41.125 93.28125 -49.4375 93.28125 -59.1875 C 93.28125 -68.832031 90.675781 -77.117188 85.46875 -84.046875 C 80.269531 -90.972656 72.75 -94.4375 62.90625 -94.4375 C 53.164062 -94.4375 45.644531 -90.972656 40.34375 -84.046875 C 35.039062 -77.117188 32.390625 -68.832031 32.390625 -59.1875 Z M 32.390625 -59.1875 "/></g></g></g><g fill="#00a9e8" fill-opacity="1"><g transform="translate(119.784344, 136.030091)"><g><path d="M 8.59375 0 L 8.59375 -73.515625 L 33.96875 -73.515625 L 33.96875 -65.765625 L 34.25 -65.765625 C 40.84375 -72.359375 47.863281 -75.65625 55.3125 -75.65625 C 58.945312 -75.65625 62.550781 -75.175781 66.125 -74.21875 C 69.707031 -73.269531 73.144531 -71.789062 76.4375 -69.78125 C 79.738281 -67.78125 82.414062 -64.941406 84.46875 -61.265625 C 86.519531 -57.585938 87.546875 -53.3125 87.546875 -48.4375 L 87.546875 0 L 62.1875 0 L 62.1875 -41.5625 C 62.1875 -45.375 60.96875 -48.710938 58.53125 -51.578125 C 56.09375 -54.453125 52.914062 -55.890625 49 -55.890625 C 45.1875 -55.890625 41.726562 -54.40625 38.625 -51.4375 C 35.519531 -48.476562 33.96875 -45.1875 33.96875 -41.5625 L 33.96875 0 Z M 8.59375 0 "/></g></g></g><g fill="#00a9e8" fill-opacity="1"><g transform="translate(207.331484, 136.030091)"><g><path d="M 8.59375 0 L 8.59375 -123.234375 L 33.96875 -123.234375 L 33.96875 0 Z M 8.59375 0 "/></g></g></g><g fill="#00a9e8" fill-opacity="1"><g transform="translate(242.722018, 136.030091)"><g><path d="M 64.34375 -73.515625 L 93.578125 -73.515625 L 35.828125 37.25 L 6.59375 37.25 L 31.953125 -11.46875 L -2.859375 -73.515625 L 26.359375 -73.515625 L 46.859375 -35.828125 Z M 64.34375 -73.515625 "/></g></g></g><g fill="#0088c9" fill-opacity="1"><g transform="translate(326.267804, 136.030091)"><g><path d="M 76.953125 -118.21875 L 76.953125 -94.578125 L 35.53125 -94.578125 L 35.53125 -71.078125 L 73.796875 -71.078125 L 73.796875 -47.4375 L 35.53125 -47.4375 L 35.53125 0 L 8.59375 0 L 8.59375 -118.21875 Z M 76.953125 -118.21875 "/></g></g></g><g fill="#ffffff" fill-opacity="1"><g transform="translate(400.365936, 136.030091)"><g><path d="M 82.96875 -33.25 L 29.65625 -33.25 C 29.65625 -28.082031 31.328125 -24.257812 34.671875 -21.78125 C 38.015625 -19.300781 41.644531 -18.0625 45.5625 -18.0625 C 49.675781 -18.0625 52.925781 -18.609375 55.3125 -19.703125 C 57.695312 -20.796875 60.421875 -22.96875 63.484375 -26.21875 L 81.828125 -17.046875 C 74.179688 -4.242188 61.472656 2.15625 43.703125 2.15625 C 32.617188 2.15625 23.113281 -1.640625 15.1875 -9.234375 C 7.257812 -16.835938 3.296875 -25.988281 3.296875 -36.6875 C 3.296875 -47.382812 7.257812 -56.550781 15.1875 -64.1875 C 23.113281 -71.832031 32.617188 -75.65625 43.703125 -75.65625 C 55.359375 -75.65625 64.835938 -72.285156 72.140625 -65.546875 C 79.453125 -58.816406 83.109375 -49.195312 83.109375 -36.6875 C 83.109375 -34.96875 83.0625 -33.820312 82.96875 -33.25 Z M 30.375 -47.28125 L 58.328125 -47.28125 C 57.753906 -51.101562 56.25 -54.039062 53.8125 -56.09375 C 51.375 -58.15625 48.242188 -59.1875 44.421875 -59.1875 C 40.210938 -59.1875 36.867188 -58.085938 34.390625 -55.890625 C 31.910156 -53.691406 30.570312 -50.820312 30.375 -47.28125 Z M 30.375 -47.28125 "/></g></g></g><g fill="#000000" fill-opacity="1"><g transform="translate(479.604157, 136.030091)"><g/></g></g><g fill="#0088c9" fill-opacity="1"><g transform="translate(511.570897, 136.030091)"><g><path d="M 8.59375 0 L 8.59375 -73.515625 L 33.96875 -73.515625 L 33.96875 -65.765625 L 34.25 -65.765625 C 40.84375 -72.359375 47.863281 -75.65625 55.3125 -75.65625 C 58.945312 -75.65625 62.550781 -75.175781 66.125 -74.21875 C 69.707031 -73.269531 73.144531 -71.789062 76.4375 -69.78125 C 79.738281 -67.78125 82.414062 -64.941406 84.46875 -61.265625 C 86.519531 -57.585938 87.546875 -53.3125 87.546875 -48.4375 L 87.546875 0 L 62.1875 0 L 62.1875 -41.5625 C 62.1875 -45.375 60.96875 -48.710938 58.53125 -51.578125 C 56.09375 -54.453125 52.914062 -55.890625 49 -55.890625 C 45.1875 -55.890625 41.726562 -54.40625 38.625 -51.4375 C 35.519531 -48.476562 33.96875 -45.1875 33.96875 -41.5625 L 33.96875 0 Z M 8.59375 0 "/></g></g></g><g fill="#0088c9" fill-opacity="1"><g transform="translate(599.118032, 136.030091)"><g><path d="M 47.71875 -54.875 C 42.9375 -54.875 38.828125 -53.109375 35.390625 -49.578125 C 31.953125 -46.046875 30.234375 -41.796875 30.234375 -36.828125 C 30.234375 -31.765625 31.953125 -27.460938 35.390625 -23.921875 C 38.828125 -20.390625 42.9375 -18.625 47.71875 -18.625 C 50.007812 -18.625 52.179688 -18.910156 54.234375 -19.484375 C 56.285156 -20.054688 57.789062 -20.628906 58.75 -21.203125 L 60.046875 -22.0625 L 68.640625 -4.4375 C 67.972656 -3.957031 67.039062 -3.359375 65.84375 -2.640625 C 64.644531 -1.929688 61.921875 -0.957031 57.671875 0.28125 C 53.421875 1.53125 48.859375 2.15625 43.984375 2.15625 C 33.191406 2.15625 23.710938 -1.640625 15.546875 -9.234375 C 7.378906 -16.835938 3.296875 -25.941406 3.296875 -36.546875 C 3.296875 -47.242188 7.378906 -56.4375 15.546875 -64.125 C 23.710938 -71.8125 33.191406 -75.65625 43.984375 -75.65625 C 48.859375 -75.65625 53.347656 -75.082031 57.453125 -73.9375 C 61.566406 -72.789062 64.484375 -71.644531 66.203125 -70.5 L 68.640625 -68.78125 L 60.046875 -51.4375 C 56.890625 -53.726562 52.78125 -54.875 47.71875 -54.875 Z M 47.71875 -54.875 "/></g></g></g><g fill="#0088c9" fill-opacity="1"><g transform="translate(662.306313, 136.030091)"><g><path d="M 82.96875 -33.25 L 29.65625 -33.25 C 29.65625 -28.082031 31.328125 -24.257812 34.671875 -21.78125 C 38.015625 -19.300781 41.644531 -18.0625 45.5625 -18.0625 C 49.675781 -18.0625 52.925781 -18.609375 55.3125 -19.703125 C 57.695312 -20.796875 60.421875 -22.96875 63.484375 -26.21875 L 81.828125 -17.046875 C 74.179688 -4.242188 61.472656 2.15625 43.703125 2.15625 C 32.617188 2.15625 23.113281 -1.640625 15.1875 -9.234375 C 7.257812 -16.835938 3.296875 -25.988281 3.296875 -36.6875 C 3.296875 -47.382812 7.257812 -56.550781 15.1875 -64.1875 C 23.113281 -71.832031 32.617188 -75.65625 43.703125 -75.65625 C 55.359375 -75.65625 64.835938 -72.285156 72.140625 -65.546875 C 79.453125 -58.816406 83.109375 -49.195312 83.109375 -36.6875 C 83.109375 -34.96875 83.0625 -33.820312 82.96875 -33.25 Z M 30.375 -47.28125 L 58.328125 -47.28125 C 57.753906 -51.101562 56.25 -54.039062 53.8125 -56.09375 C 51.375 -58.15625 48.242188 -59.1875 44.421875 -59.1875 C 40.210938 -59.1875 36.867188 -58.085938 34.390625 -55.890625 C 31.910156 -53.691406 30.570312 -50.820312 30.375 -47.28125 Z M 30.375 -47.28125 "/></g></g></g><g clip-path="url(#16c3073d3c)"><path fill="#0088c9" d="M 525.886719 4.152344 C 525.175781 4.292969 525.355469 5.574219 525.050781 6.253906 C 522.328125 7.414062 518.96875 8.148438 516.71875 10.527344 C 511.980469 12.441406 508.316406 16.277344 503.972656 18.90625 C 499.867188 21.308594 496.03125 24.261719 492.226562 27.070312 C 491.480469 28.679688 490.195312 29.753906 488.714844 30.582031 C 485.972656 33.105469 482.230469 33.289062 479.09375 35.046875 C 479.148438 32.910156 479.859375 29.0625 479.429688 26.308594 C 479.957031 20.613281 476.28125 12.875 469.546875 13.988281 C 464.925781 14.347656 459.945312 13.15625 455.507812 14.5625 C 453.558594 15.214844 453.484375 17.773438 451.902344 18.574219 C 450.507812 20.957031 449.613281 23.8125 449.585938 26.617188 C 449.109375 28.582031 451.535156 29.746094 450.636719 31.488281 C 450.007812 33.332031 451.898438 35.535156 450.398438 36.90625 C 449.730469 39.539062 446.683594 39.851562 445.144531 41.847656 C 443.105469 41.695312 441.429688 42.851562 439.535156 43.210938 C 437.171875 44.960938 435.167969 47.425781 434.046875 50.179688 C 432.40625 51.640625 430.792969 53.3125 430.226562 55.480469 C 429.886719 59.242188 426.242188 61.171875 424.710938 64.480469 C 423.957031 67.246094 423.089844 70.019531 421.820312 72.527344 C 420.820312 74.191406 419.421875 75.902344 418.503906 77.636719 C 416.859375 80.609375 414.359375 83.464844 413.730469 86.898438 C 412.675781 88.492188 412.910156 90.777344 411.554688 92.101562 C 409.992188 95.132812 409.808594 99.09375 407.308594 101.53125 C 404.941406 102.761719 404.652344 105.289062 404.679688 107.597656 C 404.375 110.1875 404.195312 114.742188 407.738281 115.023438 C 409.042969 114.476562 410.238281 113.90625 411.484375 113.230469 C 412.609375 110.121094 415.398438 107.78125 416.664062 104.683594 C 418.125 102.839844 418.964844 100.648438 420.890625 99.074219 C 422.882812 97.257812 424.183594 94.894531 425.425781 92.605469 C 426.820312 89.425781 429.335938 86.8125 430.703125 83.628906 C 430.457031 81.175781 432.535156 79.546875 433.183594 77.445312 C 435.15625 75.984375 436.507812 73.960938 438.078125 72.074219 C 438.738281 74.414062 440.15625 76.914062 438.390625 79.234375 C 438.015625 81.636719 437.144531 83.890625 436.765625 86.277344 C 436.386719 88.339844 435.964844 90.242188 435.070312 92.078125 C 433.628906 93.582031 432.695312 95.488281 431.824219 97.378906 C 431.167969 98.359375 430.503906 99.441406 430.105469 100.625 C 429.683594 103.089844 429.074219 105.625 426.546875 106.953125 C 422.832031 111.402344 418.835938 115.824219 414.804688 120.035156 C 412.722656 120.160156 410.75 121.519531 409.8125 123.472656 C 407.84375 123.753906 406.277344 125.621094 404.296875 125.929688 C 402.410156 127.933594 400.140625 129.457031 397.851562 131.0625 C 395.519531 132.476562 393.757812 134.648438 392.027344 136.699219 C 390.109375 138.941406 388.339844 141.328125 386.394531 143.527344 C 383.484375 145.265625 382.828125 148.992188 379.875 150.710938 C 377.667969 150.085938 376.261719 151.832031 375.269531 153.503906 C 373.421875 154.386719 373.222656 156.523438 371.425781 157.347656 C 369.078125 158.851562 365.839844 160.722656 365.671875 164.058594 C 366.214844 166.855469 370.429688 167.457031 372.953125 166.707031 C 375.285156 167.921875 378.449219 168.164062 380.832031 166.945312 C 381.394531 165.546875 382.265625 164.585938 382.742188 163.246094 C 386.257812 159 390.339844 155.015625 394.558594 151.332031 C 397.808594 149.441406 400.617188 146.789062 403.867188 145.054688 C 406.179688 142.074219 409.199219 138.910156 413.441406 139.96875 C 414.992188 138.878906 417.027344 138.070312 418.621094 136.675781 C 421.605469 135.347656 423.941406 133.117188 426.859375 131.589844 C 432.257812 128.484375 437.359375 125.4375 442.617188 122.207031 C 447.324219 120.976562 451.402344 117.132812 456.628906 118.003906 C 463.417969 118.21875 470.007812 119.988281 476.730469 120.917969 C 480.644531 121.882812 484.683594 122.480469 488.882812 121.847656 C 490.351562 122.570312 492.4375 122.4375 493.417969 123.878906 C 494.0625 128.988281 493.519531 134.519531 496.164062 139.0625 C 497.714844 144.675781 498.839844 150.449219 499.648438 156.203125 C 498.027344 159.554688 497.703125 163.46875 497.621094 167.234375 C 497.203125 170.40625 500.945312 169.515625 503.0625 169.644531 C 507.523438 169.316406 512.386719 170.742188 516.648438 169.359375 C 520.878906 168.394531 525.988281 172.132812 529.679688 168.6875 C 531.855469 165.425781 527.644531 161.765625 524.332031 161.957031 C 521.480469 159.445312 518.003906 157.5 515.117188 154.9375 C 514.441406 153.707031 513.472656 151.378906 511.464844 152 C 510.179688 146.726562 510.394531 141.21875 510.105469 135.769531 C 510.191406 129.476562 508.148438 123.589844 508.050781 117.335938 C 508.460938 113.414062 506.691406 109.359375 503.039062 107.550781 C 500.089844 106.917969 497.984375 104.957031 495.066406 104.207031 C 488.703125 100.96875 481.425781 99.710938 474.511719 97.976562 C 472.074219 97.914062 474.726562 95.398438 475.34375 94.441406 C 477.589844 92.109375 476.910156 88.960938 476.539062 86.113281 C 475.476562 81.90625 475.273438 77.546875 475.511719 73.171875 C 475.929688 67.886719 476.914062 62.566406 478.042969 57.414062 C 482.339844 54.71875 485.628906 50.300781 490.289062 48.246094 C 494.09375 45.222656 498.5625 43.394531 501.867188 39.820312 C 503.488281 38.949219 502.898438 36.859375 504.183594 35.714844 C 507.675781 34.617188 508.8125 30.621094 511.539062 28.480469 C 513.71875 27.316406 514.679688 24.964844 516.621094 23.371094 C 518.023438 19.75 522.355469 20.171875 525.550781 19.933594 C 527.28125 20.699219 529.265625 20.28125 530.613281 18.859375 C 531.523438 17.023438 532.847656 15.078125 533.144531 13.011719 C 609.476562 12.203125 644.472656 14.132812 660.960938 15.085938 C 660.675781 12.9375 661.042969 15.84375 661.152344 14.132812 C 637.394531 12.601562 535.3125 10.457031 532.976562 10.40625 C 533.324219 6.886719 530.175781 3.515625 526.53125 4.273438 C 526.253906 4.164062 526.046875 4.121094 525.886719 4.152344 Z M 525.886719 4.152344 " fill-opacity="1" fill-rule="nonzero"/></g></svg>