<svg xmlns="http://www.w3.org/2000/svg" xmlns:xlink="http://www.w3.org/1999/xlink" width="250" zoomAndPan="magnify" viewBox="0 0 187.5 74.999997" height="100" preserveAspectRatio="xMidYMid meet" version="1.0"><defs><clipPath id="a1d6eccc3f"><path d="M 0 0.101562 L 187 0.101562 L 187 74.898438 L 0 74.898438 Z M 0 0.101562 " clip-rule="nonzero"/></clipPath><clipPath id="a3dd253c69"><path d="M 23.488281 1.003906 L 163.363281 1.003906 L 163.363281 74 L 23.488281 74 Z M 23.488281 1.003906 " clip-rule="nonzero"/></clipPath></defs><g clip-path="url(#a1d6eccc3f)"><path fill="#ffffff" d="M 0 0.101562 L 187 0.101562 L 187 74.898438 L 0 74.898438 Z M 0 0.101562 " fill-opacity="1" fill-rule="nonzero"/><path fill="#ffffff" d="M 0 0.101562 L 187 0.101562 L 187 74.898438 L 0 74.898438 Z M 0 0.101562 " fill-opacity="1" fill-rule="nonzero"/></g><g clip-path="url(#a3dd253c69)"><path fill="#0088c9" d="M 163.464844 1.019531 C 161.394531 1.253906 159.335938 1.578125 157.289062 1.988281 C 155.246094 2.417969 153.21875 2.90625 151.210938 3.472656 C 149.207031 4.054688 147.21875 4.675781 145.25 5.371094 C 143.28125 6.066406 141.328125 6.800781 139.398438 7.59375 C 137.46875 8.382812 135.550781 9.207031 133.65625 10.074219 C 132.710938 10.515625 131.761719 10.953125 130.828125 11.414062 C 130.355469 11.640625 129.894531 11.882812 129.425781 12.113281 C 128.960938 12.347656 128.496094 12.585938 128.035156 12.828125 C 125.324219 14.257812 122.640625 15.75 120.035156 17.367188 C 119.9375 17.214844 119.84375 17.0625 119.746094 16.914062 C 119.59375 16.6875 119.355469 16.585938 119.125 16.484375 C 119.035156 16.445312 118.929688 16.4375 118.84375 16.390625 C 118.804688 16.367188 118.785156 16.292969 118.734375 16.203125 C 118.378906 16.058594 118.011719 15.988281 117.628906 15.984375 C 117.34375 15.980469 117.097656 16.105469 116.832031 16.175781 C 116.691406 16.210938 116.660156 16.382812 116.746094 16.515625 C 116.886719 16.726562 117.027344 16.9375 117.160156 17.152344 C 117.28125 17.351562 117.199219 17.507812 116.964844 17.558594 C 116.820312 17.589844 116.667969 17.605469 116.542969 17.671875 C 116.378906 17.757812 116.238281 17.878906 116.09375 17.992188 C 115.9375 18.109375 115.785156 18.226562 115.636719 18.355469 C 115.429688 18.53125 115.191406 18.6875 115.167969 19.003906 C 115.164062 19.0625 115.140625 19.113281 115.097656 19.15625 C 114.914062 19.347656 114.726562 19.535156 114.535156 19.71875 C 114.480469 19.765625 114.421875 19.800781 114.359375 19.824219 C 113.996094 19.972656 113.632812 20.121094 113.269531 20.265625 C 113.0625 20.351562 112.847656 20.417969 112.644531 20.515625 C 112.007812 20.820312 111.378906 21.144531 110.738281 21.445312 C 110.207031 21.691406 109.667969 21.933594 109.117188 22.148438 C 108.699219 22.304688 108.257812 22.402344 107.828125 22.535156 C 107.742188 22.558594 107.675781 22.601562 107.621094 22.667969 C 107.453125 22.882812 107.242188 22.980469 106.976562 23.039062 C 106.578125 23.125 106.1875 23.253906 105.789062 23.367188 C 105.460938 23.460938 105.132812 23.554688 104.804688 23.652344 C 104.675781 23.6875 104.550781 23.734375 104.417969 23.777344 C 104.363281 23.800781 104.308594 23.820312 104.253906 23.835938 C 103.417969 24.003906 102.648438 24.34375 101.898438 24.730469 C 101.414062 24.976562 100.917969 25.121094 100.363281 24.988281 C 100.089844 24.921875 99.796875 24.917969 99.515625 24.898438 C 99.214844 24.878906 99.117188 24.957031 98.941406 25.34375 C 98.820312 25.304688 98.691406 25.273438 98.566406 25.226562 C 98.128906 25.074219 97.738281 25.144531 97.382812 25.445312 C 97.246094 25.558594 97.160156 25.683594 97.179688 25.875 C 97.1875 25.992188 97.1875 26.109375 97.179688 26.226562 C 97.171875 26.300781 97.140625 26.371094 97.109375 26.488281 C 96.980469 26.40625 96.878906 26.351562 96.789062 26.285156 C 96.445312 26.050781 96.089844 25.878906 95.597656 26.074219 C 95.65625 25.90625 95.675781 25.792969 95.726562 25.695312 C 95.996094 25.179688 96.199219 24.640625 96.332031 24.070312 C 96.433594 23.625 96.476562 23.164062 96.527344 22.707031 C 96.554688 22.464844 96.539062 22.214844 96.550781 21.96875 C 96.589844 21.246094 96.480469 20.539062 96.285156 19.84375 C 96.171875 19.449219 96.070312 19.050781 95.953125 18.652344 C 95.921875 18.542969 95.871094 18.4375 95.808594 18.339844 C 95.558594 17.953125 95.3125 17.566406 95.039062 17.191406 C 94.730469 16.769531 94.339844 16.425781 93.992188 16.039062 C 93.851562 15.882812 93.625 15.78125 93.421875 15.703125 C 93.023438 15.558594 92.613281 15.460938 92.210938 15.328125 C 91.867188 15.214844 91.519531 15.214844 91.164062 15.246094 C 90.988281 15.261719 90.8125 15.238281 90.636719 15.226562 C 90.144531 15.199219 89.652344 15.167969 89.164062 15.148438 C 89.007812 15.140625 88.847656 15.167969 88.691406 15.167969 C 88.289062 15.164062 87.886719 15.160156 87.484375 15.136719 C 87.375 15.128906 87.261719 15.0625 87.164062 15.003906 C 86.957031 14.875 86.832031 14.863281 86.664062 15.03125 C 86.535156 15.164062 86.394531 15.203125 86.21875 15.210938 C 86.082031 15.222656 85.949219 15.257812 85.828125 15.324219 C 85.691406 15.386719 85.570312 15.398438 85.4375 15.320312 C 85.308594 15.238281 85.179688 15.246094 85.046875 15.316406 C 84.925781 15.378906 84.800781 15.433594 84.671875 15.472656 C 84.460938 15.535156 84.324219 15.660156 84.285156 15.871094 C 84.175781 16.464844 83.902344 17.003906 83.671875 17.554688 C 83.585938 17.761719 83.402344 17.933594 83.261719 18.121094 C 83.183594 18.230469 83.097656 18.335938 83.03125 18.449219 C 82.902344 18.660156 82.78125 18.871094 82.671875 19.089844 C 82.621094 19.183594 82.589844 19.285156 82.582031 19.394531 C 82.554688 19.742188 82.601562 20.078125 82.722656 20.40625 C 82.789062 20.589844 82.851562 20.777344 82.789062 20.984375 C 82.664062 21.054688 82.539062 21.007812 82.417969 20.972656 C 82.078125 20.871094 81.742188 20.875 81.414062 21.019531 C 81.296875 21.074219 81.214844 21.019531 81.121094 20.949219 C 80.917969 20.800781 80.734375 20.613281 80.476562 20.550781 C 80.375 20.519531 80.269531 20.5 80.160156 20.492188 C 79.777344 20.480469 79.402344 20.519531 79.042969 20.691406 C 78.792969 20.808594 78.535156 20.90625 78.273438 20.988281 C 78.105469 21.039062 77.933594 21.070312 77.753906 21.078125 C 77.234375 21.097656 76.714844 21.109375 76.191406 21.105469 C 76.035156 21.105469 75.882812 21.070312 75.738281 21.003906 C 75.257812 20.792969 74.765625 20.65625 74.238281 20.664062 C 73.894531 20.671875 73.546875 20.664062 73.203125 20.664062 C 73.007812 20.664062 72.808594 20.644531 72.625 20.746094 C 72.570312 20.769531 72.515625 20.78125 72.453125 20.78125 C 72.164062 20.816406 71.871094 20.835938 71.582031 20.882812 C 71.429688 20.90625 71.289062 20.984375 71.136719 21.015625 C 70.835938 21.082031 70.578125 20.933594 70.324219 20.804688 C 70.164062 20.722656 69.996094 20.6875 69.816406 20.695312 C 69.601562 20.703125 69.382812 20.695312 69.167969 20.699219 C 68.992188 20.703125 68.816406 20.707031 68.65625 20.8125 C 68.535156 20.890625 68.394531 20.875 68.265625 20.796875 C 68.097656 20.695312 67.933594 20.589844 67.765625 20.492188 C 67.628906 20.40625 67.480469 20.363281 67.320312 20.363281 C 67.132812 20.363281 66.949219 20.339844 66.769531 20.289062 C 66.097656 20.09375 65.449219 19.84375 64.824219 19.53125 C 64.671875 19.453125 64.492188 19.421875 64.320312 19.402344 C 64.121094 19.382812 63.925781 19.382812 63.730469 19.402344 C 63.199219 19.460938 62.726562 19.28125 62.253906 19.074219 C 62.089844 19.003906 61.921875 18.96875 61.746094 18.960938 C 61.515625 18.949219 61.300781 18.886719 61.101562 18.769531 C 60.875 18.640625 60.636719 18.570312 60.371094 18.597656 C 60.03125 18.632812 59.722656 18.558594 59.441406 18.371094 C 59.246094 18.257812 59.042969 18.152344 58.835938 18.0625 C 58.761719 18.027344 58.664062 17.996094 58.585938 18.011719 C 58.101562 18.09375 57.734375 17.84375 57.363281 17.609375 C 57.15625 17.476562 56.949219 17.34375 56.730469 17.234375 C 56.625 17.1875 56.511719 17.171875 56.390625 17.179688 C 56.066406 17.199219 55.789062 17.140625 55.523438 16.910156 C 55.347656 16.753906 55.132812 16.636719 54.960938 16.457031 C 54.816406 16.304688 54.640625 16.199219 54.4375 16.144531 C 53.871094 15.996094 53.433594 15.664062 53.035156 15.261719 C 52.472656 14.695312 51.90625 14.132812 51.339844 13.570312 C 51.277344 13.507812 51.210938 13.449219 51.15625 13.382812 C 51.023438 13.21875 50.855469 13.132812 50.640625 13.15625 C 50.425781 13.179688 50.269531 13.101562 50.105469 12.96875 C 49.871094 12.777344 49.601562 12.625 49.351562 12.460938 C 49.238281 12.382812 49.125 12.304688 49.011719 12.226562 C 48.746094 12.046875 48.46875 12.164062 48.433594 12.484375 C 48.394531 12.808594 48.523438 13.078125 48.769531 13.292969 C 48.972656 13.472656 49.1875 13.644531 49.425781 13.839844 C 49.359375 13.863281 49.3125 13.902344 49.28125 13.894531 C 48.851562 13.757812 48.386719 13.777344 47.972656 13.582031 C 47.886719 13.539062 47.800781 13.488281 47.71875 13.441406 C 47.644531 13.398438 47.574219 13.339844 47.492188 13.308594 C 47.144531 13.175781 46.792969 13.058594 46.445312 12.921875 C 46.25 12.851562 46.066406 12.757812 45.894531 12.644531 C 45.664062 12.472656 45.402344 12.40625 45.117188 12.449219 C 45.050781 12.460938 44.953125 12.503906 44.9375 12.554688 C 44.914062 12.628906 44.925781 12.753906 44.972656 12.796875 C 45.050781 12.875 45.171875 12.941406 45.277344 12.945312 C 45.53125 12.953125 45.695312 13.054688 45.824219 13.277344 C 45.914062 13.417969 46.03125 13.535156 46.171875 13.625 C 46.367188 13.757812 46.464844 13.917969 46.410156 14.144531 C 46.285156 14.683594 46.625 14.964844 46.988281 15.230469 C 47.066406 15.285156 47.152344 15.332031 47.246094 15.390625 C 47.132812 15.601562 46.921875 15.570312 46.757812 15.632812 C 46.535156 15.71875 46.417969 15.90625 46.503906 16.109375 C 46.554688 16.21875 46.625 16.3125 46.71875 16.386719 C 46.910156 16.539062 47.117188 16.671875 47.316406 16.8125 L 47.457031 16.90625 C 47.457031 16.988281 47.457031 17.054688 47.457031 17.125 C 47.453125 17.496094 47.523438 17.613281 47.871094 17.75 C 48.457031 17.976562 49.039062 18.230469 49.640625 18.398438 C 50.179688 18.542969 50.667969 18.773438 51.179688 18.980469 C 51.542969 19.132812 51.867188 19.347656 52.144531 19.632812 C 52.382812 19.867188 52.664062 20.015625 52.992188 20.082031 C 53.363281 20.15625 53.742188 20.214844 54.089844 20.371094 C 54.355469 20.488281 54.605469 20.652344 54.859375 20.800781 C 55.617188 21.238281 56.375 21.667969 57.128906 22.113281 C 57.53125 22.351562 57.917969 22.625 58.328125 22.855469 C 58.867188 23.160156 59.417969 23.445312 59.964844 23.730469 C 60.058594 23.78125 60.160156 23.820312 60.265625 23.851562 C 60.511719 23.921875 60.746094 24.011719 60.957031 24.167969 C 61.070312 24.253906 61.21875 24.296875 61.351562 24.359375 C 61.816406 24.582031 62.261719 24.863281 62.773438 24.984375 C 63.027344 25.046875 63.300781 25.046875 63.554688 25.121094 C 63.984375 25.25 64.40625 25.40625 64.828125 25.566406 C 65.140625 25.683594 65.46875 25.742188 65.804688 25.746094 C 66.199219 25.746094 66.59375 25.746094 66.988281 25.746094 C 67.085938 25.746094 67.199219 25.734375 67.277344 25.777344 C 67.730469 26.011719 68.234375 26.054688 68.710938 26.207031 C 69.925781 26.597656 71.148438 26.960938 72.367188 27.335938 C 72.425781 27.355469 72.484375 27.363281 72.539062 27.386719 C 72.789062 27.484375 72.855469 27.664062 72.695312 27.867188 C 72.546875 28.054688 72.492188 28.265625 72.429688 28.484375 C 72.398438 28.585938 72.375 28.710938 72.300781 28.773438 C 72 29.039062 71.851562 29.414062 71.59375 29.710938 C 71.566406 29.75 71.535156 29.789062 71.503906 29.828125 C 71.253906 30.050781 71.101562 30.328125 71.042969 30.65625 C 71 30.851562 70.894531 31 70.722656 31.105469 C 70.464844 31.273438 70.339844 31.523438 70.363281 31.832031 C 70.375 31.996094 70.292969 32.113281 70.1875 32.21875 C 69.441406 32.960938 68.683594 33.691406 67.953125 34.445312 C 67.660156 34.746094 67.332031 34.980469 66.996094 35.21875 C 66.855469 35.328125 66.734375 35.457031 66.632812 35.601562 C 66.519531 35.757812 66.378906 35.855469 66.214844 35.953125 C 65.964844 36.097656 65.710938 36.085938 65.449219 36.085938 C 65.113281 36.085938 64.777344 36.09375 64.441406 36.085938 C 64.296875 36.078125 64.175781 36.128906 64.078125 36.234375 C 63.585938 36.734375 63.085938 37.222656 62.597656 37.722656 C 62.484375 37.847656 62.386719 37.980469 62.300781 38.125 C 62.222656 38.25 62.242188 38.367188 62.355469 38.46875 C 62.382812 38.492188 62.417969 38.515625 62.445312 38.542969 C 62.585938 38.683594 62.597656 38.75 62.4375 38.878906 C 62.21875 39.054688 61.996094 39.242188 61.746094 39.363281 C 61.488281 39.492188 61.292969 39.671875 61.097656 39.867188 C 60.609375 40.367188 60.121094 40.859375 59.636719 41.363281 C 59.480469 41.527344 59.34375 41.707031 59.234375 41.902344 C 59.113281 42.117188 58.976562 42.320312 58.824219 42.511719 C 58.597656 42.792969 58.394531 43.089844 58.214844 43.402344 C 57.976562 43.808594 57.765625 44.230469 57.550781 44.648438 C 57.507812 44.734375 57.496094 44.832031 57.46875 44.925781 C 57.433594 45.046875 57.402344 45.167969 57.382812 45.292969 C 57.339844 45.691406 57.085938 45.964844 56.824219 46.234375 C 56.703125 46.359375 56.628906 46.488281 56.636719 46.675781 C 56.640625 46.851562 56.589844 46.882812 56.402344 46.902344 C 56.097656 46.933594 56.082031 46.933594 56.09375 47.238281 C 56.105469 47.480469 55.976562 47.613281 55.796875 47.742188 C 55.640625 47.855469 55.488281 47.980469 55.339844 48.105469 C 55.101562 48.308594 54.871094 48.523438 54.628906 48.722656 C 54.324219 48.96875 54.011719 49.207031 53.699219 49.449219 C 53.667969 49.472656 53.632812 49.492188 53.605469 49.519531 C 53.199219 49.890625 52.800781 50.265625 52.394531 50.636719 C 51.304688 51.621094 50.25 52.636719 49.226562 53.6875 C 49.046875 53.867188 48.824219 53.925781 48.582031 53.933594 C 48.445312 53.941406 48.308594 53.933594 48.167969 53.933594 C 47.867188 53.945312 47.730469 54.082031 47.710938 54.386719 C 47.699219 54.589844 47.664062 54.636719 47.472656 54.703125 C 47.210938 54.789062 46.96875 54.742188 46.738281 54.609375 C 46.667969 54.570312 46.609375 54.515625 46.542969 54.476562 C 46.210938 54.285156 46.019531 54.300781 45.757812 54.582031 C 45.597656 54.769531 45.449219 54.960938 45.3125 55.164062 C 45.199219 55.320312 45.082031 55.445312 44.855469 55.417969 C 44.652344 55.390625 44.441406 55.398438 44.238281 55.386719 C 44.113281 55.382812 44.007812 55.40625 43.917969 55.503906 C 43.871094 55.558594 43.8125 55.59375 43.746094 55.609375 C 43.195312 55.695312 42.664062 55.886719 42.09375 55.835938 C 41.71875 55.800781 41.351562 55.902344 40.992188 56.011719 C 40.582031 56.140625 40.167969 56.257812 39.757812 56.390625 C 39.601562 56.441406 39.449219 56.511719 39.308594 56.59375 C 38.773438 56.902344 38.207031 57.160156 37.773438 57.625 C 37.683594 57.722656 37.550781 57.777344 37.441406 57.863281 C 37.269531 57.992188 37.101562 58.128906 36.933594 58.261719 C 36.75 58.410156 36.554688 58.539062 36.390625 58.707031 C 36.074219 59.027344 35.652344 59.1875 35.296875 59.441406 C 35.066406 59.609375 34.792969 59.722656 34.585938 59.914062 C 34.277344 60.191406 33.910156 60.375 33.570312 60.597656 C 33.535156 60.617188 33.503906 60.640625 33.472656 60.664062 C 33.011719 61.0625 32.578125 61.492188 32.089844 61.847656 C 31.683594 62.144531 31.300781 62.496094 30.789062 62.625 C 30.75 62.636719 30.714844 62.652344 30.6875 62.679688 C 30.320312 63.023438 29.871094 63.21875 29.414062 63.410156 C 29.117188 63.53125 28.828125 63.675781 28.535156 63.800781 C 28.140625 63.972656 27.75 64.164062 27.34375 64.296875 C 27.015625 64.402344 26.679688 64.460938 26.335938 64.480469 C 25.824219 64.511719 25.3125 64.5 24.800781 64.484375 C 24.515625 64.480469 24.253906 64.558594 24 64.660156 C 23.6875 64.789062 23.550781 65.074219 23.519531 65.390625 C 23.484375 65.816406 23.53125 66.230469 23.660156 66.640625 C 23.863281 67.300781 24.136719 67.929688 24.484375 68.527344 C 24.789062 69.042969 25.132812 69.535156 25.429688 70.054688 C 25.746094 70.609375 26.097656 71.140625 26.488281 71.648438 C 26.675781 71.898438 26.820312 72.183594 27.011719 72.429688 C 27.128906 72.582031 27.300781 72.691406 27.445312 72.820312 C 27.507812 72.867188 27.5625 72.921875 27.613281 72.980469 C 27.996094 73.457031 28.484375 73.769531 29.078125 73.917969 C 29.339844 73.984375 29.625 73.976562 29.898438 73.964844 C 30.222656 73.957031 30.542969 73.925781 30.859375 73.859375 C 31.523438 73.710938 31.65625 73.222656 31.4375 72.601562 C 31.199219 71.933594 30.910156 71.289062 30.652344 70.628906 C 30.546875 70.359375 30.5 70.082031 30.507812 69.792969 C 30.511719 69.273438 30.507812 68.75 30.488281 68.230469 C 30.476562 67.835938 30.601562 67.472656 30.6875 67.101562 C 30.703125 67.042969 30.761719 66.988281 30.808594 66.941406 C 31.199219 66.574219 31.589844 66.203125 31.988281 65.839844 C 32.132812 65.707031 32.28125 65.574219 32.453125 65.484375 C 32.59375 65.414062 32.742188 65.382812 32.902344 65.378906 C 33.082031 65.375 33.238281 65.339844 33.339844 65.191406 C 33.492188 64.976562 33.742188 64.910156 33.953125 64.8125 C 34.421875 64.59375 34.925781 64.449219 35.414062 64.265625 C 35.613281 64.191406 35.804688 64.089844 36 64 C 36.207031 63.90625 36.40625 63.804688 36.617188 63.722656 C 37.199219 63.488281 37.785156 63.261719 38.367188 63.027344 C 38.90625 62.8125 39.441406 62.597656 39.980469 62.378906 C 40.1875 62.296875 40.390625 62.195312 40.597656 62.101562 C 41.398438 61.753906 42.234375 61.550781 43.109375 61.496094 C 43.1875 61.492188 43.277344 61.496094 43.339844 61.457031 C 43.660156 61.242188 44.023438 61.332031 44.367188 61.296875 C 44.511719 61.285156 44.664062 61.300781 44.808594 61.292969 C 44.917969 61.289062 45.046875 61.300781 45.125 61.246094 C 45.4375 61.042969 45.777344 61.117188 46.101562 61.132812 C 46.378906 61.140625 46.648438 61.109375 46.914062 61.039062 C 47.136719 60.980469 47.335938 60.90625 47.515625 60.757812 C 47.589844 60.695312 47.714844 60.679688 47.820312 60.675781 C 48.09375 60.664062 48.371094 60.675781 48.644531 60.671875 C 48.941406 60.664062 49.238281 60.640625 49.472656 60.421875 C 49.5 60.390625 49.535156 60.371094 49.570312 60.363281 C 49.980469 60.261719 50.386719 60.167969 50.792969 60.070312 C 50.910156 60.042969 51.019531 60.003906 51.128906 59.953125 C 51.667969 59.671875 52.226562 59.414062 52.832031 59.328125 C 53.414062 59.25 53.917969 59.003906 54.433594 58.761719 C 54.609375 58.675781 54.789062 58.597656 54.972656 58.53125 C 55.371094 58.394531 55.710938 58.167969 56.046875 57.925781 C 56.203125 57.808594 56.371094 57.707031 56.539062 57.597656 C 57.039062 57.273438 57.542969 56.953125 58.039062 56.621094 C 58.152344 56.546875 58.246094 56.441406 58.34375 56.34375 C 58.621094 56.085938 58.96875 55.953125 59.304688 55.789062 C 59.644531 55.621094 59.964844 55.40625 60.296875 55.214844 C 60.335938 55.183594 60.375 55.15625 60.417969 55.128906 C 61.085938 54.832031 61.707031 54.433594 62.410156 54.210938 C 62.78125 54.09375 63.121094 53.886719 63.480469 53.730469 C 63.714844 53.628906 63.953125 53.542969 64.191406 53.449219 C 64.609375 53.292969 65.046875 53.171875 65.441406 52.953125 C 65.558594 52.890625 65.703125 52.875 65.832031 52.835938 C 65.9375 52.804688 66.050781 52.789062 66.140625 52.734375 C 66.394531 52.582031 66.667969 52.539062 66.960938 52.546875 C 67.503906 52.5625 68.042969 52.558594 68.585938 52.578125 C 68.835938 52.589844 69.089844 52.644531 69.339844 52.679688 C 69.378906 52.6875 69.417969 52.691406 69.457031 52.691406 C 70.15625 52.691406 70.851562 52.691406 71.550781 52.691406 C 71.589844 52.695312 71.628906 52.6875 71.664062 52.675781 C 71.980469 52.535156 72.316406 52.542969 72.652344 52.550781 C 73.441406 52.5625 74.222656 52.484375 74.980469 52.257812 C 75.015625 52.238281 75.054688 52.230469 75.09375 52.226562 C 75.558594 52.269531 75.96875 52.058594 76.40625 51.953125 C 76.832031 51.851562 77.273438 51.796875 77.707031 51.71875 C 77.835938 51.699219 77.957031 51.664062 78.082031 51.640625 C 78.621094 51.542969 79.152344 51.394531 79.703125 51.390625 C 80.355469 51.390625 81.003906 51.386719 81.65625 51.390625 C 82.066406 51.394531 82.480469 51.425781 82.890625 51.417969 C 83.054688 51.417969 83.214844 51.363281 83.375 51.320312 C 83.75 51.222656 84.109375 51.191406 84.425781 51.480469 C 84.542969 51.585938 84.589844 51.714844 84.617188 51.867188 C 84.640625 52.019531 84.703125 52.164062 84.757812 52.308594 C 84.796875 52.417969 84.867188 52.519531 84.894531 52.628906 C 85.007812 53.042969 85.101562 53.464844 85.21875 53.878906 C 85.316406 54.230469 85.46875 54.558594 85.667969 54.863281 C 85.851562 55.148438 86.042969 55.433594 86.203125 55.734375 C 86.371094 56.042969 86.507812 56.371094 86.644531 56.691406 C 86.777344 56.996094 87.007812 57.226562 87.238281 57.453125 C 87.351562 57.566406 87.472656 57.667969 87.441406 57.855469 C 87.433594 57.894531 87.445312 57.933594 87.46875 57.964844 C 87.753906 58.230469 87.785156 58.667969 88.117188 58.902344 C 88.183594 58.949219 88.222656 59.042969 88.261719 59.121094 C 88.664062 59.964844 89.0625 60.808594 89.46875 61.648438 C 89.621094 61.957031 89.792969 62.257812 89.945312 62.566406 C 90.003906 62.667969 90.035156 62.777344 90.042969 62.894531 C 90.039062 63.066406 90.085938 63.222656 90.183594 63.363281 C 90.257812 63.464844 90.253906 63.542969 90.21875 63.660156 C 90.003906 64.414062 89.78125 65.167969 89.605469 65.933594 C 89.511719 66.339844 89.503906 66.769531 89.460938 67.1875 C 89.429688 67.480469 89.398438 67.773438 89.378906 68.066406 C 89.359375 68.332031 89.355469 68.597656 89.34375 68.859375 C 89.335938 68.992188 89.386719 69.054688 89.527344 69.066406 C 90.058594 69.109375 90.582031 69.191406 91.113281 69.207031 C 92.164062 69.238281 93.21875 69.230469 94.273438 69.242188 C 95.121094 69.25 95.957031 69.363281 96.792969 69.492188 C 97.5 69.601562 98.203125 69.746094 98.914062 69.851562 C 99.253906 69.898438 99.597656 69.921875 99.941406 69.921875 C 100.59375 69.929688 101.242188 69.9375 101.894531 69.921875 C 102.371094 69.90625 102.847656 69.851562 103.363281 69.808594 C 103.363281 69.609375 103.371094 69.449219 103.359375 69.289062 C 103.347656 69.125 103.300781 68.980469 103.289062 68.824219 C 103.257812 68.421875 103.023438 68.175781 102.671875 68.03125 C 102.417969 67.929688 102.15625 67.847656 101.890625 67.777344 C 101.425781 67.65625 100.949219 67.574219 100.492188 67.441406 C 100.0625 67.324219 99.703125 67.089844 99.421875 66.746094 C 99.042969 66.292969 98.632812 65.867188 98.125 65.546875 C 97.980469 65.296875 97.722656 65.238281 97.472656 65.160156 C 97.421875 65.144531 97.378906 65.121094 97.339844 65.089844 C 96.992188 64.820312 96.644531 64.546875 96.300781 64.269531 C 95.914062 63.953125 95.539062 63.621094 95.226562 63.222656 C 95.140625 63.117188 95.066406 63 95.007812 62.875 C 94.90625 62.664062 94.777344 62.464844 94.625 62.289062 C 94.507812 62.144531 94.386719 61.949219 94.386719 61.773438 C 94.386719 61.507812 94.253906 61.308594 94.179688 61.082031 C 94.101562 60.855469 94.03125 60.621094 93.953125 60.390625 C 93.929688 60.304688 93.921875 60.203125 93.867188 60.144531 C 93.675781 59.925781 93.632812 59.648438 93.535156 59.394531 C 93.503906 59.300781 93.484375 59.207031 93.484375 59.109375 C 93.476562 58.910156 93.476562 58.722656 93.351562 58.546875 C 93.292969 58.460938 93.300781 58.320312 93.308594 58.203125 C 93.324219 57.914062 93.257812 57.640625 93.113281 57.386719 C 93.046875 57.265625 93.058594 57.105469 93.023438 56.964844 C 92.929688 56.59375 92.820312 56.226562 92.738281 55.855469 C 92.652344 55.476562 92.554688 55.09375 92.59375 54.699219 C 92.59375 54.609375 92.585938 54.519531 92.566406 54.433594 C 92.539062 54.273438 92.503906 54.109375 92.476562 53.949219 C 92.472656 53.890625 92.46875 53.832031 92.457031 53.773438 C 92.292969 53.261719 92.128906 52.75 91.953125 52.242188 C 91.835938 51.898438 91.714844 51.554688 91.5625 51.222656 C 91.445312 50.964844 91.28125 50.730469 91.144531 50.484375 C 91 50.230469 90.839844 49.984375 90.988281 49.660156 C 91.074219 49.480469 91.042969 49.28125 90.898438 49.117188 C 90.855469 49.066406 90.808594 48.992188 90.8125 48.933594 C 90.828125 48.511719 90.566406 48.195312 90.410156 47.839844 C 90.289062 47.570312 90.164062 47.308594 90.277344 46.996094 C 90.339844 46.84375 90.300781 46.71875 90.15625 46.632812 C 89.925781 46.472656 89.820312 46.269531 89.847656 45.980469 C 89.859375 45.882812 89.789062 45.75 89.71875 45.667969 C 89.425781 45.339844 89.121094 45.019531 88.8125 44.699219 C 88.738281 44.621094 88.652344 44.554688 88.554688 44.503906 C 88.378906 44.417969 88.21875 44.308594 88.074219 44.175781 C 87.878906 43.992188 87.636719 43.988281 87.429688 44.148438 C 87.210938 44.316406 86.980469 44.316406 86.734375 44.238281 C 86.625 44.203125 86.507812 44.179688 86.398438 44.144531 C 86.257812 44.097656 86.113281 44.0625 85.988281 43.988281 C 85.808594 43.878906 85.625 43.8125 85.40625 43.828125 C 85.210938 43.835938 85.015625 43.835938 84.816406 43.828125 C 84.730469 43.820312 84.644531 43.804688 84.558594 43.785156 C 84.386719 43.75 84.210938 43.734375 84.042969 43.679688 C 83.859375 43.617188 83.679688 43.542969 83.503906 43.460938 C 83.453125 43.4375 83.414062 43.375 83.363281 43.355469 C 83.0625 43.253906 82.757812 43.15625 82.453125 43.0625 C 82.324219 43.023438 82.195312 42.996094 82.042969 42.957031 C 82.121094 42.746094 82.257812 42.710938 82.378906 42.652344 C 82.609375 42.542969 82.867188 42.484375 83.039062 42.273438 C 83.058594 42.25 83.082031 42.234375 83.113281 42.226562 C 83.625 42.058594 83.984375 41.683594 84.351562 41.316406 C 84.453125 41.214844 84.585938 41.144531 84.710938 41.066406 C 84.875 40.960938 85.066406 40.886719 85.203125 40.757812 C 85.730469 40.257812 86.273438 39.765625 86.746094 39.214844 C 87.136719 38.757812 87.527344 38.304688 87.957031 37.886719 C 88.140625 37.707031 88.347656 37.554688 88.523438 37.371094 C 88.683594 37.199219 88.796875 36.980469 88.964844 36.824219 C 89.425781 36.394531 89.90625 35.992188 90.375 35.574219 C 90.679688 35.296875 90.984375 35.015625 91.285156 34.734375 C 91.726562 34.3125 92.207031 33.941406 92.730469 33.625 C 93.152344 33.371094 93.574219 33.125 94.058594 33.003906 C 94.105469 32.992188 94.148438 32.972656 94.191406 32.941406 C 94.527344 32.6875 94.917969 32.558594 95.320312 32.460938 C 95.816406 32.347656 96.316406 32.226562 96.8125 32.109375 C 96.917969 32.089844 97.019531 32.058594 97.125 32.023438 C 97.957031 31.691406 98.84375 31.539062 99.703125 31.304688 C 99.957031 31.230469 100.207031 31.132812 100.464844 31.078125 C 101.074219 30.945312 101.609375 30.621094 102.195312 30.425781 C 102.445312 30.339844 102.707031 30.285156 102.957031 30.203125 C 103.589844 29.992188 104.222656 29.773438 104.855469 29.566406 C 104.996094 29.523438 105.140625 29.492188 105.285156 29.46875 C 105.609375 29.414062 105.898438 29.28125 106.148438 29.066406 C 106.191406 29.027344 106.234375 28.988281 106.285156 28.957031 C 106.582031 28.808594 106.878906 28.660156 107.175781 28.515625 C 107.234375 28.492188 107.285156 28.464844 107.332031 28.429688 C 107.726562 28.058594 108.238281 27.886719 108.675781 27.585938 C 108.898438 27.429688 109.121094 27.261719 109.363281 27.144531 C 109.730469 26.964844 110.117188 26.863281 110.527344 26.847656 C 110.707031 26.84375 110.871094 26.792969 111.023438 26.703125 C 111.28125 26.542969 111.566406 26.425781 111.835938 26.285156 C 112.121094 26.132812 112.398438 25.972656 112.683594 25.820312 C 112.78125 25.761719 112.886719 25.710938 112.988281 25.65625 C 113.148438 25.578125 113.304688 25.5 113.464844 25.421875 C 113.605469 25.351562 113.738281 25.273438 113.882812 25.21875 C 114.382812 25.023438 114.84375 24.769531 115.199219 24.359375 C 115.597656 23.90625 116.046875 23.515625 116.582031 23.226562 C 116.886719 23.066406 117.183594 22.890625 117.410156 22.621094 C 117.453125 22.570312 117.542969 22.546875 117.613281 22.523438 C 117.78125 22.46875 117.949219 22.410156 118.125 22.371094 C 118.425781 22.300781 118.621094 22.109375 118.769531 21.851562 C 118.789062 21.820312 118.8125 21.789062 118.839844 21.757812 C 118.84375 21.75 118.855469 21.75 118.882812 21.734375 L 118.984375 21.886719 C 119.542969 21.851562 119.988281 21.527344 120.140625 21.003906 C 120.285156 20.527344 120.464844 20.054688 120.433594 19.539062 C 120.421875 19.386719 120.46875 19.226562 120.484375 19.074219 C 120.535156 18.53125 120.425781 18.023438 120.152344 17.550781 C 121.003906 17.066406 121.859375 16.59375 122.71875 16.128906 C 124.546875 15.132812 126.386719 14.15625 128.246094 13.226562 C 128.710938 12.988281 129.171875 12.753906 129.640625 12.523438 C 130.105469 12.292969 130.570312 12.054688 131.039062 11.832031 L 132.4375 11.148438 L 133.847656 10.476562 C 135.730469 9.585938 137.628906 8.738281 139.542969 7.925781 C 141.460938 7.117188 143.402344 6.363281 145.355469 5.648438 C 147.308594 4.933594 149.289062 4.292969 151.28125 3.691406 C 153.273438 3.09375 155.292969 2.582031 157.324219 2.125 C 159.359375 1.6875 161.414062 1.335938 163.480469 1.070312 C 163.492188 1.066406 163.5 1.058594 163.5 1.042969 C 163.5 1.035156 163.496094 1.027344 163.488281 1.019531 C 163.480469 1.015625 163.472656 1.015625 163.464844 1.019531 Z M 163.464844 1.019531 " fill-opacity="1" fill-rule="nonzero"/></g></svg>