<svg xmlns="http://www.w3.org/2000/svg" xmlns:xlink="http://www.w3.org/1999/xlink" width="250" zoomAndPan="magnify" viewBox="0 0 187.5 74.999997" height="100" preserveAspectRatio="xMidYMid meet" version="1.0"><defs><clipPath id="1ab2c99375"><path d="M 0 0.101562 L 187 0.101562 L 187 74.898438 L 0 74.898438 Z M 0 0.101562 " clip-rule="nonzero"/></clipPath><clipPath id="936f6a8b60"><path d="M 50.597656 1.03125 L 136 1.03125 L 136 74 L 50.597656 74 Z M 50.597656 1.03125 " clip-rule="nonzero"/></clipPath></defs><g clip-path="url(#1ab2c99375)"><path fill="#ffffff" d="M 0 0.101562 L 187 0.101562 L 187 74.898438 L 0 74.898438 Z M 0 0.101562 " fill-opacity="1" fill-rule="nonzero"/><path fill="#ffffff" d="M 0 0.101562 L 187 0.101562 L 187 74.898438 L 0 74.898438 Z M 0 0.101562 " fill-opacity="1" fill-rule="nonzero"/></g><g clip-path="url(#936f6a8b60)"><path fill="#0088c9" d="M 50.644531 19.140625 C 50.667969 18.96875 50.945312 18.886719 51.222656 18.917969 C 51.417969 18.976562 51.582031 19.03125 51.664062 19.140625 L 86.734375 26.265625 C 87.152344 25.292969 87.902344 24.714844 88.621094 24.851562 C 89.144531 24.992188 89.503906 25.464844 89.671875 26.128906 L 90.476562 25.875 L 91.722656 26.652344 C 91.722656 26.652344 91.113281 26.652344 92.5 27.207031 C 93.910156 27.761719 95.601562 28.59375 95.9375 28.59375 C 96.269531 28.59375 97.738281 29.589844 97.984375 29.621094 C 98.207031 29.675781 100.011719 30.09375 100.011719 30.09375 C 100.011719 30.09375 99.789062 27.683594 100.066406 26.65625 C 100.34375 25.628906 100.261719 25.351562 100.125 24.714844 C 99.984375 24.046875 99.984375 22.109375 100.539062 21.472656 C 101.09375 20.804688 101.925781 19.007812 102.121094 18.785156 C 102.285156 18.535156 102.480469 17.675781 102.480469 17.675781 C 102.480469 17.675781 101.984375 17.757812 101.265625 17.5625 C 100.570312 17.398438 97.328125 13.90625 96.636719 12.574219 C 95.941406 11.21875 95.882812 8.109375 96.21875 7.226562 C 96.550781 6.367188 97.714844 6.117188 98.546875 5.503906 C 99.378906 4.925781 99.875 3.980469 101.125 3.425781 C 102.398438 2.867188 104.8125 4.117188 106.089844 4.949219 C 107.394531 5.808594 108.226562 7.21875 108.414062 8.109375 C 108.609375 9 108.496094 10.160156 108.832031 10.851562 C 109.164062 11.546875 109.664062 12.429688 109.664062 12.429688 L 110.382812 12.542969 C 110.71875 12.429688 113.738281 11.433594 114.292969 11.238281 C 114.847656 11.042969 116.152344 8.136719 116.511719 7.941406 C 116.871094 7.777344 117.453125 6.96875 117.453125 6.96875 L 116.675781 6.332031 C 116.675781 6.332031 113.460938 5.113281 112.601562 4.835938 C 111.910156 4.617188 111.714844 4.617188 111.632812 4.476562 C 111.519531 4.535156 111.410156 4.558594 111.328125 4.558594 C 111.273438 4.558594 111.132812 4.558594 111.078125 4.558594 C 111.050781 4.589844 110.996094 4.617188 110.964844 4.617188 C 110.90625 4.617188 110.824219 4.589844 110.769531 4.640625 C 110.574219 4.722656 110.410156 4.78125 110.238281 4.863281 C 110.183594 4.886719 110.019531 5 109.9375 5.082031 C 109.855469 5.140625 109.714844 5.195312 109.601562 5.277344 C 109.578125 5.277344 109.40625 5.417969 109.40625 5.417969 C 109.324219 5.472656 109.1875 5.5 109.105469 5.554688 C 108.851562 5.636719 108.605469 5.859375 108.355469 5.914062 C 108.355469 5.914062 108.273438 5.972656 108.242188 5.996094 C 108.160156 5.996094 107.964844 5.996094 107.882812 5.886719 C 107.660156 5.605469 107.855469 5.414062 108.019531 5.078125 C 108.078125 4.996094 108.183594 4.855469 108.273438 4.828125 C 108.355469 4.746094 108.4375 4.660156 108.523438 4.574219 C 108.746094 4.4375 108.964844 4.324219 109.160156 4.214844 C 109.21875 4.1875 109.601562 3.882812 109.578125 3.773438 L 109.578125 3.746094 C 109.4375 3.746094 109.300781 3.664062 109.160156 3.632812 C 109.132812 3.609375 109.105469 3.609375 109.078125 3.578125 C 108.964844 3.550781 108.855469 3.523438 108.71875 3.496094 C 108.636719 3.46875 108.46875 3.355469 108.414062 3.300781 C 108.277344 3.242188 108.164062 3.160156 108.023438 3.078125 C 107.96875 3.054688 107.941406 3.023438 107.886719 2.996094 C 107.691406 2.914062 107.445312 2.832031 107.222656 2.777344 C 107.085938 2.75 106.945312 2.800781 106.808594 2.832031 C 106.695312 2.832031 106.585938 2.808594 106.449219 2.808594 C 106.308594 2.808594 106.253906 2.972656 106.089844 2.890625 C 106.089844 2.890625 106.0625 2.914062 106.0625 2.945312 C 106.007812 2.972656 105.949219 2.972656 105.921875 2.972656 C 105.898438 3.109375 105.898438 3.222656 105.898438 3.332031 C 105.839844 3.496094 105.785156 3.632812 105.734375 3.773438 C 105.707031 3.828125 105.621094 3.910156 105.621094 3.96875 C 105.59375 3.96875 105.5625 3.96875 105.5625 3.96875 C 105.539062 3.996094 105.507812 4.023438 105.507812 4.082031 C 105.425781 4.136719 105.34375 4.082031 105.230469 4.054688 C 105.230469 3.917969 105.148438 3.835938 105.148438 3.695312 C 105.148438 3.582031 105.203125 3.476562 105.171875 3.394531 C 105.117188 3.394531 105.035156 3.394531 104.976562 3.335938 C 104.839844 3.171875 104.953125 3.035156 105.003906 2.8125 C 105.03125 2.757812 105.0625 2.730469 105.0625 2.671875 C 104.867188 2.699219 104.535156 2.480469 104.699219 2.230469 C 104.839844 2.09375 105.0625 2.09375 105.230469 2.011719 C 105.394531 1.929688 105.671875 1.816406 105.8125 1.707031 C 105.835938 1.652344 105.835938 1.625 105.867188 1.59375 C 105.949219 1.511719 106.0625 1.34375 106.144531 1.292969 C 106.226562 1.234375 106.3125 1.292969 106.421875 1.265625 C 106.503906 1.265625 106.5625 1.210938 106.617188 1.210938 C 106.730469 1.210938 106.8125 1.265625 106.921875 1.292969 C 106.976562 1.292969 107.035156 1.292969 107.058594 1.265625 C 107.230469 1.292969 107.394531 1.324219 107.558594 1.324219 C 107.835938 1.324219 108.167969 1.324219 108.445312 1.265625 C 108.609375 1.242188 108.78125 1.183594 108.945312 1.128906 C 109.304688 1.101562 109.71875 1.265625 110.109375 1.347656 C 110.191406 1.375 110.304688 1.375 110.386719 1.40625 C 110.445312 1.40625 110.527344 1.429688 110.582031 1.460938 C 110.835938 1.488281 111.054688 1.542969 111.304688 1.574219 C 111.414062 1.574219 111.523438 1.574219 111.664062 1.574219 C 111.941406 1.601562 112.1875 1.6875 112.46875 1.6875 C 112.746094 1.6875 113.050781 1.605469 113.328125 1.605469 C 113.441406 1.578125 113.578125 1.6875 113.6875 1.71875 C 113.90625 1.773438 114.101562 1.832031 114.324219 1.855469 C 114.738281 1.9375 115.15625 1.996094 115.570312 2.109375 C 115.683594 2.109375 115.765625 2.164062 115.847656 2.191406 C 117.125 2.328125 117.898438 2.746094 118.925781 2.859375 C 119.921875 2.996094 122.085938 4.214844 122.445312 4.382812 C 122.976562 4.660156 122.585938 8.292969 122.113281 9.207031 C 121.753906 9.957031 121.394531 11.316406 120.863281 12.035156 C 120.367188 12.785156 120.113281 13.253906 119.257812 14.445312 C 118.367188 15.660156 118.316406 15.113281 117.816406 16.4375 C 117.289062 17.792969 117.402344 17.242188 116.984375 18.160156 C 116.570312 19.097656 114.878906 21.957031 114.796875 22.566406 C 114.683594 23.261719 113.578125 25.503906 113.164062 28.304688 C 112.828125 30.632812 113.023438 34.761719 113.1875 35.234375 C 113.6875 36.84375 114.601562 36.625 115.40625 39.503906 C 115.765625 40.835938 115.1875 41.417969 115.90625 43.164062 C 116.65625 44.910156 118.070312 45.605469 118.789062 46.601562 C 119.367188 47.375 119.675781 47.957031 120.035156 48.761719 C 120.394531 49.066406 121.253906 51.089844 121.589844 51.425781 C 122.363281 52.175781 123.277344 53.140625 123.359375 54.28125 C 123.359375 54.308594 123.359375 54.363281 123.359375 54.421875 C 123.941406 54.753906 124.578125 55.058594 125.191406 55.390625 C 126.160156 55.945312 127.050781 56.582031 127.792969 57.441406 C 128.183594 57.882812 128.570312 58.300781 128.960938 58.773438 C 129.851562 59.769531 130.570312 60.933594 131.289062 62.042969 C 131.589844 62.378906 131.8125 62.65625 131.980469 62.792969 C 132.007812 62.679688 132.09375 62.597656 132.203125 62.574219 C 132.589844 62.492188 132.867188 62.6875 133.144531 62.964844 C 133.199219 63.019531 133.257812 63.078125 133.339844 63.128906 C 134.03125 63.292969 134.890625 63.601562 135.5 64.097656 C 135.558594 64.15625 135.753906 64.15625 135.804688 64.210938 C 136.414062 64.824219 135.054688 68.285156 134.890625 69.257812 C 134.75 70.0625 133.453125 72.636719 132.144531 73.191406 C 130.839844 73.746094 129.347656 73.828125 128.597656 73.386719 C 127.847656 72.914062 128.292969 71.585938 129.175781 70.785156 C 130.285156 69.785156 130.035156 69.117188 130.480469 67.738281 C 130.457031 67.707031 130.425781 67.65625 130.425781 67.597656 C 130.449219 67.515625 130.480469 67.402344 130.480469 67.296875 C 130.230469 67.679688 129.8125 67.988281 129.730469 68.460938 C 129.707031 68.601562 129.480469 68.542969 129.511719 68.40625 C 129.648438 67.792969 130.316406 67.433594 130.449219 66.851562 C 130.335938 66.574219 130.148438 66.355469 129.953125 66.078125 C 129.789062 65.882812 129.757812 65.546875 129.984375 65.359375 C 130.007812 65.332031 130.039062 65.300781 130.066406 65.300781 C 128.988281 63.972656 124.132812 60.753906 122.246094 60.175781 C 120.75 59.703125 120.140625 60.035156 119.0625 59.480469 C 118.808594 59.507812 118.5625 59.449219 118.367188 59.34375 C 118.339844 59.34375 118.3125 59.316406 118.3125 59.316406 C 117.476562 58.980469 116.839844 58.238281 116.367188 57.460938 C 114.320312 55.910156 111.101562 52.222656 109.992188 50.53125 C 108.550781 48.3125 106.667969 46.039062 106.667969 46.039062 C 105.726562 46.261719 104.675781 46.539062 103.617188 46.929688 C 102.5625 47.484375 101.59375 48.203125 100.597656 48.898438 C 100.402344 49.09375 100.238281 49.289062 100.015625 49.476562 C 99.957031 49.589844 99.875 49.730469 99.820312 49.835938 C 99.625 50.253906 99.265625 50.390625 98.90625 50.367188 C 98.710938 50.503906 98.515625 50.644531 98.292969 50.75 C 97.160156 51.390625 95.9375 51.863281 94.800781 52.472656 C 94.550781 52.75 94.359375 53.085938 94.246094 53.5 C 93.828125 54.945312 93.578125 56.632812 91.78125 56.9375 C 91.699219 56.964844 91.609375 56.964844 91.558594 56.964844 C 91.308594 58.097656 90.617188 59.679688 88.203125 61.566406 C 83.738281 65.03125 83.273438 64.839844 81.855469 66.195312 C 81.023438 67.003906 79.582031 69.574219 79.527344 70.105469 C 79.5 70.492188 79.363281 71.683594 79.054688 72.488281 C 78.972656 72.742188 79.167969 72.988281 78.914062 73.125 C 78.417969 73.429688 76.367188 73.378906 74.066406 73.484375 C 70.597656 73.648438 66.578125 73.761719 66.496094 73.011719 C 66.382812 72.15625 67.605469 71.625 68.996094 71.046875 C 68.996094 71.019531 68.996094 70.988281 69.019531 70.964844 C 69.019531 70.882812 69.101562 70.792969 69.183594 70.792969 C 69.242188 70.792969 69.324219 70.851562 69.347656 70.90625 C 69.429688 70.882812 69.511719 70.824219 69.601562 70.792969 C 69.65625 70.769531 69.714844 70.738281 69.765625 70.710938 C 69.789062 70.710938 69.789062 70.6875 69.789062 70.65625 C 69.816406 70.628906 69.847656 70.574219 69.871094 70.515625 C 69.929688 70.433594 70.039062 70.402344 70.125 70.460938 C 70.148438 70.484375 70.179688 70.515625 70.179688 70.542969 C 70.402344 70.460938 70.621094 70.347656 70.84375 70.265625 C 70.871094 70.183594 70.871094 70.101562 70.902344 69.988281 C 70.925781 69.90625 71.011719 69.847656 71.121094 69.875 C 71.203125 69.898438 71.261719 69.988281 71.234375 70.09375 C 71.429688 70.011719 71.621094 69.929688 71.789062 69.84375 L 71.789062 69.785156 C 71.789062 69.589844 72.039062 69.566406 72.125 69.703125 C 72.289062 69.621094 72.457031 69.539062 72.621094 69.484375 C 72.621094 69.320312 72.785156 69.261719 72.875 69.34375 C 73.175781 69.179688 73.402344 69.042969 73.59375 68.902344 C 73.234375 69.066406 72.875 69.179688 72.457031 69.042969 C 72.320312 69.015625 72.375 68.789062 72.511719 68.820312 C 72.898438 68.960938 73.234375 68.820312 73.59375 68.652344 C 73.152344 68.570312 72.703125 68.429688 72.234375 68.488281 C 72.070312 68.511719 72.070312 68.265625 72.234375 68.265625 C 72.816406 68.210938 73.371094 68.40625 73.925781 68.488281 C 73.984375 68.488281 74.039062 68.460938 74.097656 68.429688 C 74.347656 68.179688 74.539062 67.957031 74.707031 67.792969 C 74.707031 67.738281 74.707031 67.65625 74.707031 67.597656 C 74.652344 66.796875 75.875 66.796875 75.957031 67.574219 C 76.761719 66.460938 83.273438 57.703125 84.136719 55.539062 C 84.910156 53.488281 86.019531 52.988281 86.019531 52.296875 C 86.019531 51.578125 88.015625 48.886719 88.238281 48.859375 C 88.492188 48.804688 92.566406 43.757812 93.398438 43.292969 C 93.535156 43.210938 99.300781 38.582031 99.523438 38.386719 C 99.996094 37.96875 101.65625 36.859375 101.65625 36.859375 L 101.515625 35.308594 C 101.515625 35.308594 100.019531 35.363281 98.773438 34.949219 C 97.523438 34.53125 96.003906 33.367188 95.613281 33.316406 C 95.253906 33.289062 94.640625 33.011719 93.949219 32.734375 C 93.253906 32.457031 90.984375 30.90625 90.984375 30.90625 C 90.984375 30.90625 89.539062 31.515625 88.574219 30.960938 C 87.824219 30.519531 87.660156 30.074219 87.496094 29.6875 C 86.664062 29.464844 86.246094 28.242188 86.523438 26.945312 L 86.550781 26.886719 L 51.535156 19.539062 C 51.453125 19.566406 51.285156 19.597656 51.121094 19.566406 C 50.839844 19.472656 50.613281 19.308594 50.644531 19.140625 Z M 50.644531 19.140625 " fill-opacity="1" fill-rule="evenodd"/></g></svg>